<svg xmlns="http://www.w3.org/2000/svg" viewBox="0 0 800 450" role="img" aria-labelledby="title"><title>Wire stripper</title><defs><linearGradient id="bg" x2="0" y2="1"><stop stop-color="#f8fafc"/><stop offset="1" stop-color="#e2e8f0"/></linearGradient><linearGradient id="steel" x2="1"><stop stop-color="#64748b"/><stop offset=".5" stop-color="#f1f5f9"/><stop offset="1" stop-color="#475569"/></linearGradient></defs><rect width="800" height="450" fill="url(#bg)"/><ellipse cx="405" cy="360" rx="270" ry="24" fill="#94a3b8" opacity=".32"/><g transform="translate(140 63) rotate(-10 260 150)"><path d="M278 164L167 290Q151 309 174 324L200 340Q222 351 238 329L337 193M346 189L455 316Q473 336 496 320L519 303Q537 287 519 267L408 144" fill="none" stroke="#ef4444" stroke-width="42" stroke-linecap="round"/><path d="M293 169L190 294M398 162L500 289" fill="none" stroke="#7f1d1d" stroke-width="8" opacity=".55"/><path d="M242 57L320 153L345 185L376 145L465 66L444 44L366 111L336 71L306 113L263 37Z" fill="url(#steel)" stroke="#334155" stroke-width="9" stroke-linejoin="round"/><circle cx="349" cy="155" r="35" fill="#475569"/><circle cx="349" cy="155" r="15" fill="#cbd5e1"/><g fill="#0f172a"><circle cx="301" cy="106" r="10"/><circle cx="324" cy="125" r="10"/><circle cx="376" cy="124" r="10"/><circle cx="401" cy="104" r="10"/></g></g></svg>
